<?xml version="1.0" encoding="UTF-8" standalone="no"?>
<!-- Created with Inkscape (http://www.inkscape.org/) -->

<svg
   width="1920"
   height="1080"
   viewBox="0 0 1920 1080"
   version="1.1"
   id="svg5"
   xml:space="preserve"
   inkscape:version="1.2.2 (b0a8486541, 2022-12-01)"
   sodipodi:docname="user_guide_thumbnail.svg"
   xmlns:inkscape="http://www.inkscape.org/namespaces/inkscape"
   xmlns:sodipodi="http://sodipodi.sourceforge.net/DTD/sodipodi-0.dtd"
   xmlns="http://www.w3.org/2000/svg"
   xmlns:svg="http://www.w3.org/2000/svg"><sodipodi:namedview
     id="namedview7"
     pagecolor="#ffffff"
     bordercolor="#000000"
     borderopacity="0.25"
     inkscape:showpageshadow="2"
     inkscape:pageopacity="0.0"
     inkscape:pagecheckerboard="0"
     inkscape:deskcolor="#d1d1d1"
     inkscape:document-units="px"
     showgrid="false"
     inkscape:zoom="0.56100934"
     inkscape:cx="1007.1134"
     inkscape:cy="566.83549"
     inkscape:window-width="1920"
     inkscape:window-height="1011"
     inkscape:window-x="0"
     inkscape:window-y="0"
     inkscape:window-maximized="1"
     inkscape:current-layer="layer1" /><defs
     id="defs2" /><g
     inkscape:label="Layer 1"
     inkscape:groupmode="layer"
     id="layer1"><rect
       style="fill:#800080;stroke:#000000;stroke-opacity:0"
       id="rect253"
       width="1929.8016"
       height="1086.2131"
       x="-4.9008179"
       y="-3.1065674" /><g
       inkscape:label="Layer 1"
       id="layer1-3"
       transform="matrix(45,0,0,45,165.21766,195.97545)"><rect
         style="fill:#ffffff;stroke-width:1.00623"
         id="rect506"
         width="16.026623"
         height="16.065048"
         x="0.0020080411"
         y="-0.046516433" /><rect
         style="fill:#000000"
         id="rect413"
         width="13.972284"
         height="14.050152"
         x="1.0138578"
         y="0.97492409" /><rect
         style="fill:#000000"
         id="rect467"
         width="4.267868"
         height="3.1520667"
         x="2.0422893"
         y="1.9804863" /><rect
         style="fill:#ffffff"
         id="rect471"
         width="11.964578"
         height="11.938362"
         x="2.0177112"
         y="2.0308189" /><g
         aria-label="W"
         id="text297"
         style="font-family:'Bree Serif';-inkscape-font-specification:'Bree Serif'"><path
           d="M 13.25,4.982 12.854,5.018 Q 12.542,5.042 12.458,5.45 l -1.512,6.54 H 9.3020001 l -1.26,-5.34 h -0.036 L 6.782,11.99 H 5.09 L 3.434,5.0659999 2.75,5.03 V 4.01 H 5.726 V 4.982 L 5.33,5.018 Q 4.958,5.054 4.958,5.33 q 0,0.048 0.012,0.1079999 L 6.014,10.07 H 6.062 L 7.31,4.6459999 H 8.8580001 L 10.154,10.094 h 0.024 l 1.02,-5.0160001 -0.648,-0.048 v -1.02 h 2.7 z"
           id="path598" /></g></g><text
       xml:space="preserve"
       style="font-size:266.667px;font-family:'Bree Serif';-inkscape-font-specification:'Bree Serif';fill:#ffffff;stroke:#000000;stroke-opacity:0"
       x="990.40527"
       y="460.26657"
       id="text490"><tspan
         sodipodi:role="line"
         id="tspan488"
         x="990.40527"
         y="460.26657">User</tspan><tspan
         sodipodi:role="line"
         x="990.40527"
         y="793.60034"
         id="tspan594">Guide</tspan></text></g></svg>
