<?xml version="1.0" encoding="UTF-8" standalone="no"?>
<!-- Created with Inkscape (http://www.inkscape.org/) -->

<svg
   width="1920"
   height="1080"
   viewBox="0 0 1920 1080"
   version="1.1"
   id="svg5"
   xml:space="preserve"
   inkscape:version="1.2.2 (b0a8486541, 2022-12-01)"
   sodipodi:docname="user_guide_thumbnail.svg"
   xmlns:inkscape="http://www.inkscape.org/namespaces/inkscape"
   xmlns:sodipodi="http://sodipodi.sourceforge.net/DTD/sodipodi-0.dtd"
   xmlns="http://www.w3.org/2000/svg"
   xmlns:svg="http://www.w3.org/2000/svg"><sodipodi:namedview
     id="namedview7"
     pagecolor="#ffffff"
     bordercolor="#000000"
     borderopacity="0.25"
     inkscape:showpageshadow="2"
     inkscape:pageopacity="0.0"
     inkscape:pagecheckerboard="0"
     inkscape:deskcolor="#d1d1d1"
     inkscape:document-units="px"
     showgrid="false"
     inkscape:zoom="0.56100934"
     inkscape:cx="1009.7871"
     inkscape:cy="566.83548"
     inkscape:window-width="1920"
     inkscape:window-height="1011"
     inkscape:window-x="0"
     inkscape:window-y="0"
     inkscape:window-maximized="1"
     inkscape:current-layer="layer1" /><defs
     id="defs2" /><g
     inkscape:label="Layer 1"
     inkscape:groupmode="layer"
     id="layer1"><rect
       style="fill:#800080;stroke:#000000;stroke-opacity:0"
       id="rect253"
       width="1929.8016"
       height="1086.2131"
       x="-4.9008179"
       y="-3.1065674" /><g
       inkscape:label="Layer 1"
       id="layer1-3"
       transform="matrix(45,0,0,45,165.21766,195.97545)"><rect
         style="fill:#ffffff;stroke-width:1.00623"
         id="rect506"
         width="16.026623"
         height="16.065048"
         x="0.0020080411"
         y="-0.046516433" /><rect
         style="fill:#000000"
         id="rect413"
         width="13.972284"
         height="14.050152"
         x="1.0138578"
         y="0.97492409" /><rect
         style="fill:#000000"
         id="rect467"
         width="4.267868"
         height="3.1520667"
         x="2.0422893"
         y="1.9804863" /><rect
         style="fill:#ffffff"
         id="rect471"
         width="11.964578"
         height="11.938362"
         x="2.0177112"
         y="2.0308189" /><g
         aria-label="W"
         id="text297"
         style="font-family:'Bree Serif';-inkscape-font-specification:'Bree Serif'"><path
           d="M 13.25,4.982 12.854,5.018 Q 12.542,5.042 12.458,5.45 l -1.512,6.54 H 9.3020001 l -1.26,-5.34 h -0.036 L 6.782,11.99 H 5.09 L 3.434,5.0659999 2.75,5.03 V 4.01 H 5.726 V 4.982 L 5.33,5.018 Q 4.958,5.054 4.958,5.33 q 0,0.048 0.012,0.1079999 L 6.014,10.07 H 6.062 L 7.31,4.6459999 H 8.8580001 L 10.154,10.094 h 0.024 l 1.02,-5.0160001 -0.648,-0.048 v -1.02 h 2.7 z"
           id="path598" /></g></g><g
       aria-label="User
Guide"
       id="text490"
       style="font-size:266.667px;font-family:'Bree Serif';-inkscape-font-specification:'Bree Serif';fill:#ffffff;stroke:#000000;stroke-opacity:0"><path
         d="m 1044.0053,314.13306 v 88.53344 q 0,18.66669 8.8,26.40003 9.0667,7.46668 25.6001,7.46668 16.8,0 25.8667,-8.26668 9.3333,-8.26667 9.3333,-24.26669 v -97.60012 l -15.4667,-0.8 v -22.6667 h 63.2001 v 21.60003 l -8.8,0.8 q -7.7333,0.8 -7.7333,8.00001 v 95.20011 q 0,25.8667 -18.1334,40.53339 -18.1333,14.66668 -50.1334,14.66668 -32,0 -48.5334,-14.13335 -16.2667,-14.40002 -16.2667,-45.33339 v -97.86678 l -15.46665,-0.8 v -22.6667 h 64.53345 v 21.60003 l -8.8001,0.8 q -4.2666,0.53333 -6.1333,2.4 -1.8667,1.6 -1.8667,6.40001 z"
         id="path692" /><path
         d="m 1241.8724,346.39977 q -6.4,-2.40001 -15.4666,-2.40001 -9.0667,0 -14.6667,4.26667 -5.3334,4.00001 -5.3334,10.13335 0,5.86667 1.8667,9.33334 2.1333,3.20001 6.4,5.60001 6.6667,3.46667 16,6.13334 9.3334,2.40001 13.8667,4.00001 4.5333,1.33333 11.2,4.8 6.9334,3.46667 10.4,7.46668 9.3334,9.86668 9.3334,25.33336 0,20.00003 -14.6667,31.46671 -14.4,11.20001 -36.8001,11.20001 -32.5333,0 -49.0667,-8.26667 v -37.06672 l 24.0001,-1.86667 v 12.80002 q 0,11.73335 22.4,11.73335 22.4,0 22.4,-16.26669 0,-5.86667 -4,-9.60001 -3.7333,-3.73334 -7.4667,-5.06667 -3.7333,-1.33334 -9.0667,-2.66667 -5.0666,-1.33334 -10.1333,-2.66667 -4.8,-1.33334 -10.6667,-3.46667 -5.6,-2.40001 -12.5333,-6.66668 -13.6,-8.80001 -13.6,-29.33337 0,-20.80002 14.6666,-32.00004 14.6667,-11.20001 36.8001,-11.20001 22.4,0 44.2667,10.66668 v 32.00004 l -24,1.86667 v -11.20002 q 0,-6.66667 -6.1334,-9.06667 z"
         id="path694" /><path
         d="m 1359.206,322.13307 q 20,0 31.7333,9.86668 11.7334,9.60001 11.7334,27.20003 0,11.73335 -5.0667,20.80003 -5.0667,8.80001 -12.5333,13.86668 -7.4667,5.06667 -18.1334,8.26668 -17.8667,5.33334 -40.2667,5.33334 0.8,14.13335 8.8,22.93336 8,8.53334 24.5334,8.53334 16.5333,0 33.0667,-11.73335 l 10.1333,21.60003 q -5.3333,4.80001 -18.1333,9.86668 -12.5334,5.06667 -28.8001,5.06667 -32.5333,0 -47.7334,-17.86669 -15.2,-18.13335 -15.2,-49.60006 0,-31.4667 17.3334,-52.80006 17.3333,-21.33336 48.5334,-21.33336 z m -12.2667,61.06674 q 9.8667,-1.86667 18.1333,-7.73334 8.2667,-6.13334 8.2667,-14.40002 0,-16.26669 -16,-16.26669 -14.9334,0 -22.9334,12.00002 -8,11.73335 -8.8,28.2667 11.7334,-0.26667 21.3334,-1.86667 z"
         id="path696" /><path
         d="m 1437.8725,430.39987 v -73.86676 q 0,-4.26667 -1.6,-5.86667 -1.3333,-1.86667 -5.0667,-2.13334 l -11.2,-0.8 v -21.60003 h 45.0668 v 20.00003 q 4.8,-10.40001 14.9333,-17.06669 10.1333,-6.93334 23.2,-6.93334 13.3334,0 25.3334,5.86667 v 39.73338 l -24.8,1.86667 v -12.26668 q 0,-5.33334 -2.6667,-6.66667 -2.9333,-1.33334 -7.2,-1.33334 -10.6667,0 -17.6,7.73335 -6.6667,7.46667 -6.6667,19.20002 v 61.86674 l 23.2,1.06667 v 21.06669 h -71.4667 v -20.26669 l 8.8,-0.8 q 4,-0.53334 5.8666,-2.13334 1.8667,-1.86667 1.8667,-6.66667 z"
         id="path698" /><path
         d="m 1140.8055,731.4669 v 48.26673 q -24.8001,17.06669 -61.6001,17.06669 -36.8001,0 -57.6001,-22.93337 -20.5333,-23.20002 -20.5333,-68.53341 0,-20.00003 5.0666,-36.00005 5.3334,-16.00002 13.6,-26.40003 8.5334,-10.40001 19.7334,-17.33335 21.3334,-12.53335 48.2667,-12.53335 27.2001,0 50.6668,10.93334 v 45.33339 l -27.2001,1.86667 v -20.80002 q 0,-4.00001 -1.0666,-5.86668 -2.9334,-5.06667 -24.2667,-5.06667 -51.4668,0 -51.4668,63.73341 0,67.20008 46.4001,67.20008 18.4,0 28.2667,-6.4 v -39.73339 h -0.2667 l -20.5333,-0.8 V 700.8002 h 66.4 v 21.33336 l -6.1333,0.53333 q -4.2667,0.53334 -6.1333,2.4 -1.6,1.60001 -1.6,6.40001 z"
         id="path700" /><path
         d="m 1306.1391,772.53362 v 21.06669 h -43.2001 v -17.33335 q -14.6667,20.80002 -43.2,20.80002 -41.3334,0 -41.3334,-46.13339 v -61.60007 q 0,-7.20001 -6.6667,-7.46668 l -8.5333,-0.53333 v -21.8667 h 46.9334 v 84.53344 q 0,14.13335 4,21.33336 4,7.20001 16.5333,7.20001 12.5334,0 20,-7.73334 7.7334,-7.73335 7.7334,-18.66669 v -56.26674 q 0,-4.26667 -1.6,-5.86667 -1.3334,-1.86667 -5.0667,-2.13334 l -8.5333,-0.53333 v -21.8667 h 46.9334 v 104.53347 q 0,4.26667 1.3333,5.86667 1.3333,1.33333 5.3333,1.86667 z"
         id="path702" /><path
         d="m 1370.6724,659.46681 v 112.00014 l 15.2,0.8 v 21.33336 h -63.4667 v -20.26669 l 8.8,-0.8 q 7.7333,-0.8 7.7333,-8.53334 v -74.13343 q 0,-4.53334 -1.6,-6.13334 -1.3333,-1.6 -5.0667,-1.6 l -9.3333,-0.53334 v -22.13336 z m -33.6001,-22.93336 q -5.6,-5.6 -5.6,-14.13335 0,-8.53334 5.6,-14.13335 5.6001,-5.86667 14.6667,-5.86667 9.0667,0 14.6667,5.86667 5.8667,5.60001 5.8667,14.13335 0,8.53335 -5.8667,14.13335 -5.6,5.33334 -14.6667,5.33334 -9.0666,0 -14.6667,-5.33334 z"
         id="path704" /><path
         d="m 1468.2724,655.46681 q 11.4666,0 21.8667,3.2 v -26.93336 q 0,-5.86668 -6.9334,-6.40001 l -11.4667,-0.8 v -21.06669 h 49.6001 v 162.13353 q 0.2667,6.13334 6.6667,6.13334 l 9.3333,0.53333 v 21.33336 h -43.2 v -15.73335 l -0.8,-0.26667 q -12.0001,19.46669 -36.2667,19.46669 -30.4001,0 -42.6668,-20.26669 -11.2,-18.40002 -11.2,-45.06672 0,-34.66671 17.0667,-55.46674 17.3334,-20.80002 48.0001,-20.80002 z m 21.8667,96.53345 v -69.06675 q -9.6001,-4.26667 -20.2667,-4.26667 -17.6001,0 -25.8667,14.13335 -8,14.13335 -8,36.00004 0,44.80006 28.8,44.80006 10.9333,0 18.1334,-6.13334 7.2,-6.40001 7.2,-15.46669 z"
         id="path706" /><path
         d="m 1619.7394,655.46681 q 20,0 31.7334,9.86668 11.7333,9.60001 11.7333,27.20003 0,11.73335 -5.0666,20.80003 -5.0667,8.80001 -12.5334,13.86668 -7.4667,5.06667 -18.1333,8.26668 -17.8667,5.33334 -40.2668,5.33334 0.8,14.13335 8.8,22.93336 8.0001,8.53334 24.5334,8.53334 16.5334,0 33.0667,-11.73335 l 10.1334,21.60003 q -5.3334,4.80001 -18.1334,9.86668 -12.5333,5.06667 -28.8,5.06667 -32.5334,0 -47.7334,-17.86669 -15.2,-18.13335 -15.2,-49.60006 0,-31.4667 17.3333,-52.80006 17.3334,-21.33336 48.5334,-21.33336 z m -12.2667,61.06674 q 9.8667,-1.86667 18.1334,-7.73334 8.2667,-6.13334 8.2667,-14.40002 0,-16.26669 -16.0001,-16.26669 -14.9333,0 -22.9333,12.00002 -8,11.73335 -8.8,28.2667 11.7333,-0.26667 21.3333,-1.86667 z"
         id="path708" /></g></g></svg>
